<svg width="734" height="600" viewBox="0 0 734 600" fill="none" xmlns="http://www.w3.org/2000/svg">
<path d="M586.027 566.666C628.094 566.666 662.227 532.566 662.227 490.466V338.1L700.327 300L662.227 261.9V109.533C662.227 67.433 628.127 33.333 586.027 33.333M147.967 33.333C105.867 33.333 71.767 67.433 71.767 109.533V261.9L33.667 300L71.767 338.1V490.466C71.767 532.566 105.867 566.666 147.967 566.666" stroke="black" stroke-width="66.6667" stroke-linecap="round" stroke-linejoin="round"/>
<path d="M420 420C420 420 480 375 480 300C480 225 420 180 420 180M270 210V209.7M270 390V389.7M270 195C278.284 195 285 201.717 285 210C285 218.283 278.284 225 270 225C261.716 225 255 218.283 255 210C255 201.717 261.716 195 270 195ZM270 375C278.284 375 285 381.716 285 390C285 398.284 278.284 405 270 405C261.716 405 255 398.284 255 390C255 381.716 261.716 375 270 375Z" stroke="black" stroke-width="66.6667" stroke-linecap="round" stroke-linejoin="round"/>
</svg>
